<svg id="visual" viewBox="0 0 1920 1080" width="1920" height="1080" xmlns="http://www.w3.org/2000/svg" xmlns:xlink="http://www.w3.org/1999/xlink" version="1.1"><path d="M0 87L45.7 90.7C91.3 94.3 182.7 101.7 274.2 101.7C365.7 101.7 457.3 94.3 548.8 103.3C640.3 112.3 731.7 137.7 823 152.2C914.3 166.7 1005.7 170.3 1097 159.5C1188.3 148.7 1279.7 123.3 1371.2 116.2C1462.7 109 1554.3 120 1645.8 127.2C1737.3 134.3 1828.7 137.7 1874.3 139.3L1920 141L1920 0L1874.3 0C1828.7 0 1737.3 0 1645.8 0C1554.3 0 1462.7 0 1371.2 0C1279.7 0 1188.3 0 1097 0C1005.7 0 914.3 0 823 0C731.7 0 640.3 0 548.8 0C457.3 0 365.7 0 274.2 0C182.7 0 91.3 0 45.7 0L0 0Z" fill="#403e38"></path><path d="M0 217L45.7 220.7C91.3 224.3 182.7 231.7 274.2 231.7C365.7 231.7 457.3 224.3 548.8 231.5C640.3 238.7 731.7 260.3 823 269.3C914.3 278.3 1005.7 274.7 1097 260.2C1188.3 245.7 1279.7 220.3 1371.2 218.5C1462.7 216.7 1554.3 238.3 1645.8 242C1737.3 245.7 1828.7 231.3 1874.3 224.2L1920 217L1920 139L1874.3 137.3C1828.7 135.7 1737.3 132.3 1645.8 125.2C1554.3 118 1462.7 107 1371.2 114.2C1279.7 121.3 1188.3 146.7 1097 157.5C1005.7 168.3 914.3 164.7 823 150.2C731.7 135.7 640.3 110.3 548.8 101.3C457.3 92.3 365.7 99.7 274.2 99.7C182.7 99.7 91.3 92.3 45.7 88.7L0 85Z" fill="#33322d"></path><path d="M0 498L45.7 503.3C91.3 508.7 182.7 519.3 274.2 528.3C365.7 537.3 457.3 544.7 548.8 541.2C640.3 537.7 731.7 523.3 823 512.5C914.3 501.7 1005.7 494.3 1097 479.8C1188.3 465.3 1279.7 443.7 1371.2 447.3C1462.7 451 1554.3 480 1645.8 496.2C1737.3 512.3 1828.7 515.7 1874.3 517.3L1920 519L1920 215L1874.3 222.2C1828.7 229.3 1737.3 243.7 1645.8 240C1554.3 236.3 1462.7 214.7 1371.2 216.5C1279.7 218.3 1188.3 243.7 1097 258.2C1005.7 272.7 914.3 276.3 823 267.3C731.7 258.3 640.3 236.7 548.8 229.5C457.3 222.3 365.7 229.7 274.2 229.7C182.7 229.7 91.3 222.3 45.7 218.7L0 215Z" fill="#272522"></path><path d="M0 617L45.7 622.3C91.3 627.7 182.7 638.3 274.2 640C365.7 641.7 457.3 634.3 548.8 625.3C640.3 616.3 731.7 605.7 823 593.2C914.3 580.7 1005.7 566.3 1097 557.3C1188.3 548.3 1279.7 544.7 1371.2 548.2C1462.7 551.7 1554.3 562.3 1645.8 575C1737.3 587.7 1828.7 602.3 1874.3 609.7L1920 617L1920 517L1874.3 515.3C1828.7 513.7 1737.3 510.3 1645.8 494.2C1554.3 478 1462.7 449 1371.2 445.3C1279.7 441.7 1188.3 463.3 1097 477.8C1005.7 492.3 914.3 499.7 823 510.5C731.7 521.3 640.3 535.7 548.8 539.2C457.3 542.7 365.7 535.3 274.2 526.3C182.7 517.3 91.3 506.7 45.7 501.3L0 496Z" fill="#1b1a17"></path><path d="M0 800L45.7 809C91.3 818 182.7 836 274.2 846.8C365.7 857.7 457.3 861.3 548.8 865C640.3 868.7 731.7 872.3 823 865.2C914.3 858 1005.7 840 1097 838.2C1188.3 836.3 1279.7 850.7 1371.2 850.7C1462.7 850.7 1554.3 836.3 1645.8 831C1737.3 825.7 1828.7 829.3 1874.3 831.2L1920 833L1920 615L1874.3 607.7C1828.7 600.3 1737.3 585.7 1645.8 573C1554.3 560.3 1462.7 549.7 1371.2 546.2C1279.7 542.7 1188.3 546.3 1097 555.3C1005.7 564.3 914.3 578.7 823 591.2C731.7 603.7 640.3 614.3 548.8 623.3C457.3 632.3 365.7 639.7 274.2 638C182.7 636.3 91.3 625.7 45.7 620.3L0 615Z" fill="#191816"></path><path d="M0 876L45.7 885C91.3 894 182.7 912 274.2 922.8C365.7 933.7 457.3 937.3 548.8 940.8C640.3 944.3 731.7 947.7 823 936.8C914.3 926 1005.7 901 1097 897.5C1188.3 894 1279.7 912 1371.2 917.3C1462.7 922.7 1554.3 915.3 1645.8 909.8C1737.3 904.3 1828.7 900.7 1874.3 898.8L1920 897L1920 831L1874.3 829.2C1828.7 827.3 1737.3 823.7 1645.8 829C1554.3 834.3 1462.7 848.7 1371.2 848.7C1279.7 848.7 1188.3 834.3 1097 836.2C1005.7 838 914.3 856 823 863.2C731.7 870.3 640.3 866.7 548.8 863C457.3 859.3 365.7 855.7 274.2 844.8C182.7 834 91.3 816 45.7 807L0 798Z" fill="#181714"></path><path d="M0 1081L45.7 1081C91.3 1081 182.7 1081 274.2 1081C365.7 1081 457.3 1081 548.8 1081C640.3 1081 731.7 1081 823 1081C914.3 1081 1005.7 1081 1097 1081C1188.3 1081 1279.7 1081 1371.2 1081C1462.7 1081 1554.3 1081 1645.8 1081C1737.3 1081 1828.7 1081 1874.3 1081L1920 1081L1920 895L1874.3 896.8C1828.7 898.7 1737.3 902.3 1645.8 907.8C1554.3 913.3 1462.7 920.7 1371.2 915.3C1279.7 910 1188.3 892 1097 895.5C1005.7 899 914.3 924 823 934.8C731.7 945.7 640.3 942.3 548.8 938.8C457.3 935.3 365.7 931.7 274.2 920.8C182.7 910 91.3 892 45.7 883L0 874Z" fill="#161513"></path></svg>