<svg id="visual" viewBox="0 0 1920 1080" width="1920" height="1080" xmlns="http://www.w3.org/2000/svg" xmlns:xlink="http://www.w3.org/1999/xlink" version="1.1"><rect x="0" y="0" width="1920" height="1080" fill="#1B1A17"></rect><path d="M0 656L274 788L549 784L823 787L1097 721L1371 673L1646 754L1920 722L1920 1081L1646 1081L1371 1081L1097 1081L823 1081L549 1081L274 1081L0 1081Z" fill="#f0a500"></path><path d="M0 827L274 726L549 760L823 712L1097 738L1371 797L1646 779L1920 715L1920 1081L1646 1081L1371 1081L1097 1081L823 1081L549 1081L274 1081L0 1081Z" fill="#f09208"></path><path d="M0 866L274 891L549 887L823 878L1097 866L1371 869L1646 908L1920 833L1920 1081L1646 1081L1371 1081L1097 1081L823 1081L549 1081L274 1081L0 1081Z" fill="#ee7f14"></path><path d="M0 926L274 891L549 916L823 919L1097 891L1371 922L1646 902L1920 892L1920 1081L1646 1081L1371 1081L1097 1081L823 1081L549 1081L274 1081L0 1081Z" fill="#ea6c1e"></path><path d="M0 1018L274 1011L549 1010L823 1017L1097 986L1371 1029L1646 978L1920 954L1920 1081L1646 1081L1371 1081L1097 1081L823 1081L549 1081L274 1081L0 1081Z" fill="#e45826"></path></svg>