<svg id="visual" viewBox="0 0 900 450" width="900" height="450" xmlns="http://www.w3.org/2000/svg" xmlns:xlink="http://www.w3.org/1999/xlink" version="1.1"><rect x="0" y="0" width="900" height="450" fill="#E45826"></rect><path d="M0 344L25 351.2C50 358.3 100 372.7 150 368.5C200 364.3 250 341.7 300 330.8C350 320 400 321 450 325.2C500 329.3 550 336.7 600 347.2C650 357.7 700 371.3 750 373.3C800 375.3 850 365.7 875 360.8L900 356L900 451L875 451C850 451 800 451 750 451C700 451 650 451 600 451C550 451 500 451 450 451C400 451 350 451 300 451C250 451 200 451 150 451C100 451 50 451 25 451L0 451Z" fill="#F0A500" stroke-linecap="round" stroke-linejoin="miter"></path></svg>