<svg id="visual" viewBox="0 0 1920 1080" width="1920" height="1080" xmlns="http://www.w3.org/2000/svg" xmlns:xlink="http://www.w3.org/1999/xlink" version="1.1"><rect width="1920" height="1080" fill="#1B1A17"></rect><g><g transform="translate(1229 253)"><path d="M0 -408.3L353.6 -204.1L353.6 204.1L0 408.3L-353.6 204.1L-353.6 -204.1Z" stroke="#E45826" fill="none" stroke-width="8"></path></g><g transform="translate(962 1078)"><path d="M0 -252L218.2 -126L218.2 126L0 252L-218.2 126L-218.2 -126Z" stroke="#E45826" fill="none" stroke-width="8"></path></g><g transform="translate(113 561)"><path d="M0 -315L272.8 -157.5L272.8 157.5L0 315L-272.8 157.5L-272.8 -157.5Z" stroke="#E45826" fill="none" stroke-width="8"></path></g><g transform="translate(1892 793)"><path d="M0 -235L203.5 -117.5L203.5 117.5L0 235L-203.5 117.5L-203.5 -117.5Z" stroke="#E45826" fill="none" stroke-width="8"></path></g></g></svg>